# xmcd CD database file
#
# Track frame offsets:
#	150
#	28960
#	53984
#	86575
#	110678
#	141583
#	183129
#	211527
#
# Disc length: 3220 seconds
#
# Revision: 0
# Processed by: cddbd v1.5.1PL0 Copyright (c) Steve Scherf et al.
# Submitted via: CDex 1.51
#
DISCID=6f0c9208
DTITLE=Sons of Armageddon - The Softest Touch
DYEAR=2004
DGENRE=Jazz
TTITLE0=Ripe Watermelon
TTITLE1=Hoels
TTITLE2=E. S. Smothered
TTITLE3=Shambles Factory
TTITLE4=Wall Street Colonel
TTITLE5=Dubya
TTITLE6=The Diddler
TTITLE7=One Thousand Kisses Deep
EXTD=YEAR: 2004
EXTT0=
EXTT1=
EXTT2=
EXTT3=
EXTT4=
EXTT5=
EXTT6=
EXTT7=
PLAYORDER=
